<?xml version="1.0" encoding="UTF-8"?>
<svg version="1.1" xmlns="http://www.w3.org/2000/svg" width="500" height="150">
<path d="M0 0 C0.99 0 1.98 0 3 0 C3.2165625 1.2065625 3.2165625 1.2065625 3.4375 2.4375 C3.74135249 4.92103706 3.74135249 4.92103706 5 6 C5.61317388 11.27329537 4.16733542 13.84287226 1 18 C2.0725 17.38125 3.145 16.7625 4.25 16.125 C6.79780984 14.6676321 9.35259355 13.27075509 12 12 C10.4928842 16.06921267 7.66624042 18.79860056 4 21 C0.125 21.8125 0.125 21.8125 -3 22 C-4.1484375 20.328125 -4.1484375 20.328125 -5 18 C-4.1015625 15.421875 -4.1015625 15.421875 -2.625 12.75 C-2.14289063 11.85796875 -1.66078125 10.9659375 -1.1640625 10.046875 C-0.77992188 9.37140625 -0.39578125 8.6959375 0 8 C-0.74765625 8.84304687 -1.4953125 9.68609375 -2.265625 10.5546875 C-3.26009916 11.66174364 -4.25490849 12.76849875 -5.25 13.875 C-5.74113281 14.43058594 -6.23226562 14.98617187 -6.73828125 15.55859375 C-10.13247207 19.31483159 -12.52695302 21.76447172 -17.625 22.25 C-20 22 -20 22 -22 20 C-22.721875 20.515625 -23.44375 21.03125 -24.1875 21.5625 C-27.48004941 23.24535859 -28.54365408 23.00052119 -32 22 C-32.99 22 -33.98 22 -35 22 C-36.66666667 22 -38.33333333 22 -40 22 C-40.95465783 19.83032311 -41.14401212 18.43671207 -40.3984375 16.17578125 C-39.64129615 14.4315257 -38.82390802 12.71372869 -38 11 C-38.67546875 11.721875 -39.3509375 12.44375 -40.046875 13.1875 C-40.93890625 14.115625 -41.8309375 15.04375 -42.75 16 C-43.63171875 16.928125 -44.5134375 17.85625 -45.421875 18.8125 C-48 21 -48 21 -52 21 C-50.97977128 18.25323037 -49.89494656 15.82625778 -48.375 13.3125 C-46.82964154 11.16188894 -46.82964154 11.16188894 -47 9 C-51.81123996 13.03523352 -56.13242719 17.04467233 -60 22 C-61.32 21.67 -62.64 21.34 -64 21 C-63.67 20.01 -63.34 19.02 -63 18 C-65.97793335 18.42541905 -67.92530835 18.95331772 -70.5 20.5625 C-73.29400449 22.16905258 -74.83205295 22.35199412 -78 22 C-79 21 -79 21 -79.4375 18.375 C-78.84465712 13.80164061 -76.64312339 10.82425621 -73 8 C-71.68 8 -70.36 8 -69 8 C-68.690625 7.360625 -68.38125 6.72125 -68.0625 6.0625 C-67 4 -67 4 -66 3 C-63.66702567 2.95907063 -61.33294775 2.95758277 -59 3 C-59.46800711 7.05606165 -59.87953208 10.46588679 -62 14 C-60.00125619 12.19161275 -58.85125097 10.72190399 -57.5625 8.3125 C-57.046875 7.549375 -56.53125 6.78625 -56 6 C-54.68 6 -53.36 6 -52 6 C-52 6.66 -52 7.32 -52 8 C-51.13375 7.34 -50.2675 6.68 -49.375 6 C-45.78576537 3.87304615 -44.07305202 3.61209028 -40 4 C-39.505 5.98 -39.505 5.98 -39 8 C-38.67 7.67 -38.34 7.34 -38 7 C-36.00041636 6.95919217 -33.99954746 6.95745644 -32 7 C-31 10 -31 10 -31.77734375 12.04296875 C-32.35162109 13.10451172 -32.35162109 13.10451172 -32.9375 14.1875 C-33.50791016 15.26064453 -33.50791016 15.26064453 -34.08984375 16.35546875 C-34.39019531 16.89816406 -34.69054687 17.44085938 -35 18 C-32.10786951 15.8515602 -29.84423562 13.80828999 -27.5625 11 C-23.57861274 6.33593687 -20.22611558 3.94809003 -14.125 3.25 C-12.75109379 3.15024443 -11.37616443 3.06116286 -10 3 C-9.25 5.125 -9.25 5.125 -9 8 C-10.75 11 -10.75 11 -13 14 C-14.01059521 15.66026356 -15.01453001 17.32470102 -16 19 C-8.28507096 13.77375775 -3.91933811 8.45751907 0 0 Z M-63 5 C-64.64555699 6.22809091 -64.64555699 6.22809091 -66 8 C-65.77242269 10.16299211 -65.77242269 10.16299211 -65 12 C-63.39092892 9.62387135 -63.39092892 9.62387135 -62 7 C-62.33 6.34 -62.66 5.68 -63 5 Z M-14 5 C-19.22183821 8.10823703 -24.84184341 12.15302371 -26.66796875 18.21875 C-26.77753906 18.8065625 -26.88710938 19.394375 -27 20 C-23.33584124 17.93687686 -20.29451872 15.64127824 -17.1875 12.8125 C-16.39730469 12.09707031 -15.60710937 11.38164063 -14.79296875 10.64453125 C-14.20128906 10.10183594 -13.60960937 9.55914062 -13 9 C-13.33 7.68 -13.66 6.36 -14 5 Z M-71 11 C-72.6483633 12.75244247 -72.6483633 12.75244247 -74 15 C-73.78282648 17.20800528 -73.78282648 17.20800528 -73 19 C-71.68 17.68 -70.36 16.36 -69 15 C-69.66 13.68 -70.32 12.36 -71 11 Z " fill="#003BB2" transform="translate(340,68)"/>
<path d="M0 0 C1.11375 0.2475 1.11375 0.2475 2.25 0.5 C5.19006578 1.11925696 5.19006578 1.11925696 9 1 C11.00401011 1.30830925 13.00511766 1.63729412 15 2 C15.495 4.475 15.495 4.475 16 7 C16.38671875 6.55527344 16.7734375 6.11054687 17.171875 5.65234375 C17.95304687 4.80349609 17.95304687 4.80349609 18.75 3.9375 C19.51570313 3.08478516 19.51570313 3.08478516 20.296875 2.21484375 C22 1 22 1 24.203125 1.31640625 C24.79609375 1.54199219 25.3890625 1.76757812 26 2 C23.90801399 5.63344938 21.59030222 8.99723157 19.0859375 12.3515625 C17.81409656 14.12801293 17.81409656 14.12801293 17 17 C22.172798 13.82578305 26.03756286 10.88731141 28 5 C29.65 4.67 31.3 4.34 33 4 C33 4.99 33 5.98 33 7 C33.680625 6.505 34.36125 6.01 35.0625 5.5 C38.59465009 3.69634889 41.08636991 3.76978647 45 4 C44.5317879 8.77576339 43.75668002 12.04476345 41 16 C44.26460973 14.19587357 45.88929795 13.16605307 48 10 C48.99 10 49.98 10 51 10 C49.50269778 14.042716 46.72262394 16.90759963 43 19 C39.125 19.3125 39.125 19.3125 36 19 C35.79913557 15.28400809 35.8480563 14.22791555 38 11 C38 10.01 38 9.02 38 8 C32.47231902 11.75597751 32.47231902 11.75597751 28.25 16.8125 C24.85095195 20.11713005 21.27682678 19.79616867 16.6796875 20.0546875 C14 20 14 20 12 19 C11.375 16.9375 11.375 16.9375 11 15 C9.7934375 15.9590625 9.7934375 15.9590625 8.5625 16.9375 C5.74134692 18.89163204 3.89907623 19.14225419 0.5 19.125 C-1.83354402 19.16048425 -1.83354402 19.16048425 -4 20 C-6.0171394 22.41971074 -7.39026868 24.8439793 -8.80859375 27.65234375 C-10 30 -10 30 -12 32 C-12.99 32 -13.98 32 -15 32 C-14.51675181 26.84535266 -11.81389239 23.18449681 -9 19 C-10.299375 19.185625 -11.59875 19.37125 -12.9375 19.5625 C-15.15234375 19.87890625 -15.15234375 19.87890625 -17 20 C-18 19 -18 19 -18.26953125 16.265625 C-17.95356103 12.43734819 -16.95454513 10.81027624 -14.6875 7.75 C-14.07261719 6.89921875 -13.45773438 6.0484375 -12.82421875 5.171875 C-11 3 -11 3 -8 1 C-7.01 1 -6.02 1 -5 1 C-5.60787167 4.36205563 -6.8167264 6.34514405 -8.9375 9 C-10.98365252 11.57402971 -12.61884896 14.0108422 -14 17 C-6.75632214 13.59121042 -3.85051184 9.22974136 -0.6875 2 C-0.460625 1.34 -0.23375 0.68 0 0 Z M9 4 C2.98387859 7.69171087 -0.68982119 11.26197846 -3 18 C2.65834154 16.98149852 5.1932008 15.27349421 8.8359375 10.8515625 C10.06374205 8.89861164 10.57291355 7.25461916 11 5 C10.34 4.67 9.68 4.34 9 4 Z M12 12 C13 14 13 14 13 14 Z " fill="#003BB2" transform="translate(183,70)"/>
<path d="M0 0 C2 2 2 2 2.34765625 5.14453125 C1.93540355 9.71636736 0.58577453 12.70008334 -1.5625 16.6875 C-1.92021484 17.37650391 -2.27792969 18.06550781 -2.64648438 18.77539062 C-5.89410953 24.96707103 -9.3763465 31.02097172 -13 37 C-12.113125 36.4225 -11.22625 35.845 -10.3125 35.25 C-9.56419922 34.76273438 -9.56419922 34.76273438 -8.80078125 34.265625 C-0.35751004 28.3315255 7.19985898 19.72547938 11 10 C11.25197243 6.20747213 11.25197243 6.20747213 11 3 C11.66 2.34 12.32 1.68 13 1 C14.32 1 15.64 1 17 1 C18.66716792 6.61144325 16.70898802 9.6955005 14.06640625 14.66796875 C7.73552762 24.87636095 -1.2583378 36.11140428 -13 40 C-15.8125 39.625 -15.8125 39.625 -18 39 C-17.63225477 32.45063249 -15.06366962 28.23438384 -11.625 22.75 C-7.56100322 16.04287993 -4.21902488 9.86182714 -3 2 C-7.67025461 5.15557744 -9.12344231 7.8641579 -11 13 C-12.32 12.67 -13.64 12.34 -15 12 C-14.86210108 9.03517326 -14.71055664 6.78765516 -12.66796875 4.5234375 C-8.23928273 0.83825351 -5.73798286 -0.35862393 0 0 Z " fill="#003AB3" transform="translate(159,53)"/>
<path d="M0 0 C0.68642578 -0.00386719 1.37285156 -0.00773437 2.08007812 -0.01171875 C6.54605357 -0.00326847 10.78064064 0.39916434 15.1875 1.125 C13.94140625 2.640625 13.94140625 2.640625 12.1875 4.125 C10.27734375 4.109375 10.27734375 4.109375 8.125 3.875 C4.27525219 4.19321254 3.29810215 4.99951242 0.69140625 7.95703125 C-2.04903784 11.86912609 -4.44583167 15.97964402 -6.8125 20.125 C-7.23660156 20.85493164 -7.66070312 21.58486328 -8.09765625 22.33691406 C-11.48731142 28.18070031 -14.85783497 34.04639225 -17.8125 40.125 C-19.1325 39.795 -20.4525 39.465 -21.8125 39.125 C-21.48161014 32.55074091 -18.92784582 28.61488441 -15.1875 23.3125 C-14.64641602 22.52439941 -14.10533203 21.73629883 -13.54785156 20.92431641 C-11.9816911 18.6490307 -10.39933163 16.38589777 -8.8125 14.125 C-8.02788588 12.99401642 -7.24392923 11.86257613 -6.4609375 10.73046875 C-4.92397092 8.51989336 -3.37070684 6.32065509 -1.8125 4.125 C-8.2475 4.62 -8.2475 4.62 -14.8125 5.125 C-11.8125 1.125 -11.8125 1.125 -10.11328125 0.3828125 C-6.74101335 0.00493528 -3.38808073 -0.01877053 0 0 Z " fill="#003BB2" transform="translate(267.8125,52.875)"/>
<path d="M0 0 C1.98 0 3.96 0 6 0 C5.67 1.32 5.34 2.64 5 4 C3.02 4.33 1.04 4.66 -1 5 C-0.67 3.35 -0.34 1.7 0 0 Z " fill="#003AB4" transform="translate(210,63)"/>
<path d="M0 0 C1.2065625 0.0309375 1.2065625 0.0309375 2.4375 0.0625 C2.1075 1.3825 1.7775 2.7025 1.4375 4.0625 C-0.2125 4.3925 -1.8625 4.7225 -3.5625 5.0625 C-3.5625 0.08689024 -3.5625 0.08689024 0 0 Z " fill="#003EAF" transform="translate(182.5625,62.9375)"/>
</svg>
